{"title":"Jurassic World (2015) 1080p BDrip x264 AC3-Hi AAC-En 5.1 Subs -D","uid":15585073,"size":5981277801,"categoryP":"video","categoryS":"hd___movies","magnet":"?xt=urn:btih:61e56234b23cdcbbb1765f687a82455509a7b212&amp;dn=Jurassic+World+%282015%29+1080p+BDrip+x264+AC3-Hi+AAC-En+5.1+Subs+-D&amp;tr=udp%3A%2F%2Ftracker.leechers-paradise.org%3A6969&amp;tr=udp%3A%2F%2Fzer0day.ch%3A1337&amp;tr=udp%3A%2F%2Fopen.demonii.com%3A1337&amp;tr=udp%3A%2F%2Ftracker.coppersurfer.tk%3A6969&amp;tr=udp%3A%2F%2Fexodus.desync.com%3A6969","seeders":5,"leechers":13,"uploader":"SaM","files":3,"time":1471455081,"description":"\n1080p Blu-ray x264\r\n\r\nHindi AC3 5.1 / Englisg AAC 5.1\r\n\r\n\r\n\r\nEnglish Hearing Impaired Subtitle \r\n \nhttp://extraimago.com/image/wcyW \nhttp://extraimago.com/image/wcyA \nhttp://extraimago.com/image/wcyv \nhttp://extraimago.com/image/wcyu \nhttp://extraimago.com/image/wcyV \nhttp://extraimago.com/image/wcy6 \nhttp://extraimago.com/image/wcyx \nhttp://extraimago.com/image/wcyt \nhttp://extraimago.com/image/wcyo \nhttp://extraimago.com/image/wcyk \nhttp://extraimago.com/image/wcyH \nhttp://extraimago.com/image/wcyF\r\n\r\nSpecs:\r\nSource: BD50 Blu-ray @ HDClub\r\n\r\nFormat : Matroska\r\nFile size : 5.51 GiB\r\nDuration : 2h 4mn\r\nOverall bit rate : 6 345 Kbps\r\n\r\nVideo\r\nFormat : AVC\r\nFormat/Info : Advanced Video Codec\r\nFormat profile :   \r\nFormat settings, CABAC : Yes\r\nFormat settings, ReFrames : 4 frames\r\nCodec ID : V_MPEG4/ISO/AVC\r\nDuration : 2h 4mn\r\nBit rate : 5 506 Kbps\r\nWidth : 1 920 pixels\r\nHeight : 960 pixels\r\nDisplay aspect ratio : 2.000\r\nFrame rate mode : Constant\r\nFrame rate : 23.976 (24000/1001) fps\r\nColor space : YUV\r\nChroma subsampling : 4:2:0\r\nBit depth : 8 bits\r\nScan type : Progressive\r\nBits/(Pixel*Frame) : 0.125\r\nStream size : 4.78 GiB (87%)\r\n\r\nAudio #1\r\nFormat : AC-3\r\nFormat/Info : Audio Coding 3\r\nMode extension : CM (complete main)\r\nFormat settings, Endianness : Big\r\nCodec ID : A_AC3\r\nDuration : 2h 4mn\r\nBit rate mode : Constant\r\nBit rate : 640 Kbps\r\nChannel(s) : 6 channels\r\nChannel positions : Front: L C R, Side: L R, LFE\r\nSampling rate : 48.0 KHz\r\nFrame rate : 31.250 fps (1536 spf)\r\nCompression mode : Lossy\r\nStream size : 569 MiB (10%)\r\nLanguage : Hindi\r\nDefault : Yes\r\nForced : No\r\n\r\nAudio #2\r\nID : 3\r\nFormat : AAC\r\nFormat/Info : Advanced Audio Codec\r\nFormat profile : LC\r\nCodec ID : A_AAC\r\nDuration : 2h 4mn\r\nBit rate : 192 Kbps\r\nChannel(s) : 6 channels\r\nChannel positions : Front: L C R, Side: L R, LFE\r\nSampling rate : 48.0 KHz\r\nFrame rate : 46.875 fps (1024 spf)\r\nCompression mode : Lossy\r\nDelay relative to video : 9ms\r\nStream size : 170 MiB (3%)\r\nLanguage : English\r\nDefault : No\r\nForced : No\r\n\r\nText\r\nID : 4\r\nFormat : VobSub\r\nMuxing mode : zlib\r\nCodec ID : S_VOBSUB\r\nCodec ID/Info : Picture based subtitle format used on DVDs\r\nDuration : 1h 53mn\r\nBit rate : 5 417 bps\r\nCount of elements : 1492\r\nStream size : 4.41 MiB (0%)\r\nLanguage : English\r\nDefault : Yes\r\nForced : No\r\n\r\nSAMPLE Included","torrent":{"xt":"urn:btih:61e56234b23cdcbbb1765f687a82455509a7b212","amp;dn":"Jurassic+World+%282015%29+1080p+BDrip+x264+AC3-Hi+AAC-En+5.1+Subs+-D","amp;tr":["udp%3A%2F%2Ftracker.leechers-paradise.org%3A6969","udp%3A%2F%2Fzer0day.ch%3A1337","udp%3A%2F%2Fopen.demonii.com%3A1337","udp%3A%2F%2Ftracker.coppersurfer.tk%3A6969","udp%3A%2F%2Fexodus.desync.com%3A6969"],"infoHash":"61e56234b23cdcbbb1765f687a82455509a7b212","infoHashBuffer":{"type":"Buffer","data":[97,229,98,52,178,60,220,187,177,118,95,104,122,130,69,85,9,167,178,18]},"announce":[],"urlList":[]}}